<?xml version="1.0" encoding="utf-8"?>
<!-- Generator: Adobe Illustrator 27.5.0, SVG Export Plug-In . SVG Version: 6.00 Build 0)  -->
<svg version="1.1" id="Layer_1" xmlns="http://www.w3.org/2000/svg" xmlns:xlink="http://www.w3.org/1999/xlink" x="0px" y="0px"
	 viewBox="0 0 4000 4000" style="enable-background:new 0 0 4000 4000;" xml:space="preserve">
<g>
	<g>
		<g>
			<rect style="fill:#67E9FF;" width="4000" height="4000"/>
		</g>
	</g>
	<g>
		<g style="opacity:0.2;">
			<g>
				<ellipse style="fill:#000072;" cx="2105.208" cy="3315.606" rx="1024.792" ry="133.988"/>
			</g>
		</g>
		<g>
			<g>
				<g>
					<path style="fill:#97979E;" d="M790.778,2613.427c7.236,30.009,15.82,58.671,25.54,85.984
						c194.742,548.043,855.373,570.177,855.373,570.177l27.952-150.189c-20.361-4.611-40.864-9.506-61.437-14.898
						c-249.865-64.63-507.676-187.435-606.075-396.081c-44.624-94.64-56.614-203.326-44.198-299.03
						c6.243-48.454,18.8-93.576,36.607-131.885c34.55-74.563,88.822-123.443,155.226-120.889
						c63.708,2.413,67.964,76.549,67.894,95.633c-0.71,111.453,40.934,177.005,142.314,171.826
						c31.641-1.561,69.17-27.171,94.923-71.086c32.35-55.336,45.901-139.76,5.179-242.344
						c-123.159-310.522-603.947-277.888-707.738,118.902C755.306,2332.772,753.816,2460.614,790.778,2613.427z"/>
				</g>
			</g>
			<g>
				<g>
					<path style="fill:#FFFFFF;" d="M782.336,2229.548c27.03-32.847,54.911-70.447,73.711-65.268
						c32.634,9.08,11.451,76.778,37.688,87.073c24.726,9.703,47.871-54.865,82.278-55.432c32.422-0.568,44.34,41.998,48.526,81.586
						c34.55-74.563,88.822-123.443,155.226-120.889c63.708,2.413,67.964,76.549,67.894,95.633
						c-0.71,111.453,40.934,177.005,142.314,171.826c31.641-1.561,69.17-27.171,94.923-71.086
						c32.35-55.336,45.901-139.76,5.179-242.344C1366.915,1800.124,886.127,1832.758,782.336,2229.548z"/>
				</g>
			</g>
			<g style="opacity:0.3;">
				<g>
					<path style="fill:#000072;" d="M987.914,2409.365c18.479-142.61,91.331-256.553,191.875-252.746
						c63.682,2.437,67.949,76.578,67.878,95.663c-0.747,111.409,40.899,176.943,142.284,171.818
						c31.662-1.603,69.219-27.18,94.911-71.108c-30.191,13.9-64.771,16.487-98.494,11.927
						c-77.385-10.339-88.152-106.177-93.927-206.514c-6.753-116.935-196.29-134.549-258.844,16.483
						C998.797,2258.899,988.995,2344.693,987.914,2409.365z"/>
				</g>
			</g>
			<g style="opacity:0.3;">
				<g>
					<path style="fill:#000072;" d="M816.331,2699.392c194.695,548.083,855.368,570.17,855.368,570.17l27.956-150.176
						c-20.365-4.571-40.876-9.473-61.469-14.867c-98.188,17.512-302.691,26.755-553.944-114.645
						C972.589,2927.091,884.426,2817.994,816.331,2699.392z"/>
				</g>
			</g>
			<g>
				<g>
					<path style="fill:#000072;" d="M1671.734,3287.87c-0.208,0-0.415-0.005-0.623-0.015c-7.573-0.249-187.768-7.183-389.714-92.583
						c-119.011-50.332-220.474-117.603-301.572-199.946c-101.611-103.179-171.194-230.22-206.816-377.598
						c-45.327-187.524-36.584-355.488,25.283-485.728c53.352-112.314,144.634-193.816,257.031-229.492
						c88.374-28.057,181.963-24.971,263.523,8.684c87.483,36.101,152.581,102.727,188.252,192.678
						c38.765,97.749,34.697,194.727-11.162,266.064c-27.495,42.778-67.742,70.522-105.034,72.412
						c-47.493,2.393-85.344-9.556-112.522-35.557c-32.979-31.553-49.473-83.569-49.021-154.609
						c0.112-17.676-3.179-75.498-50.271-77.28c-55.72-2.144-94.375,38.066-116.899,72.144
						c-64.324,97.314-90.916,289.346-13.508,453.56c116.65,247.456,460.435,357.432,654.978,400.962
						c9.856,2.202,16.057,11.978,13.85,21.836c-2.207,9.854-11.992,16.069-21.833,13.848
						c-201.067-44.985-556.782-159.512-680.071-421.05c-83.105-176.299-53.743-383.691,16.077-489.321
						c39.15-59.229,91.992-90.674,148.792-88.521c63.596,2.412,85.781,62.949,85.454,114.058
						c-0.386,60.581,12.31,103.628,37.734,127.949c19.897,19.038,47.834,27.344,85.391,25.459
						c25.332-1.284,55.212-23.13,76.125-55.659c18.643-29.004,56.736-109.746,7.927-232.817
						c-71.475-180.227-258.704-226.965-406.719-179.985c-180.032,57.146-355.583,267.368-257.832,671.772
						c61.897,256.079,225.776,441.948,487.087,552.456c195.759,82.788,374.905,89.658,376.692,89.722
						c10.093,0.337,18,8.789,17.664,18.882C1689.666,3280.077,1681.548,3287.87,1671.734,3287.87z"/>
				</g>
			</g>
			<g>
				<g>
					<path style="fill:#FFFFFF;" d="M2141.57,3314.33c2.53-3.419,4.997-7.213,7.399-11.34
						C2146.608,3307.12,2144.141,3310.913,2141.57,3314.33z"/>
				</g>
			</g>
			<g>
				<g>
					<path style="fill:#FFFFFF;" d="M2150.109,3107.191c0.344,6.912,0.479,13.853,0.448,20.827
						C2150.546,3121.042,2150.411,3114.101,2150.109,3107.191z"/>
				</g>
			</g>
			<g>
				<g>
					<path style="fill:#6B184E;" d="M1989.7,3074.184c-10.051,0-18.228-8.125-18.281-18.188
						c-0.642-119.004-74.299-168.618-75.044-169.102c-8.447-5.537-10.811-16.87-5.278-25.317c5.535-8.442,16.87-10.796,25.313-5.278
						c3.708,2.432,90.83,61.074,91.577,199.502c0.054,10.098-8.086,18.325-18.186,18.384
						C1989.769,3074.184,1989.735,3074.184,1989.7,3074.184z"/>
				</g>
			</g>
			<g style="opacity:0.3;">
				<g>
					<path style="fill:#6B184E;" d="M2729.837,3347.603c-2.433,0.741-4.82,1.401-7.157,1.899c1.044-0.235,2.047-0.472,3.052-0.751
						C2727.071,3348.409,2728.453,3348.026,2729.837,3347.603z"/>
				</g>
			</g>
			<g>
				<g>
					
						<ellipse transform="matrix(0.0518 -0.9987 0.9987 0.0518 -1204.955 5124.3188)" style="fill:#FC7E81;" cx="2095.967" cy="3196.684" rx="83.65" ry="46.002"/>
				</g>
			</g>
			<g style="opacity:0.3;">
				<g>
					<path style="fill:#6B184E;" d="M2134.267,3238.619c-9.129,25.614-25.195,42.489-42.65,41.584
						c-13.956-0.723-25.843-12.691-33.358-30.955C2082.46,3256.984,2109.797,3257.576,2134.267,3238.619z"/>
				</g>
			</g>
			<g>
				<g>
					<path style="fill:#97979E;" d="M2732.133,3137.388l-179.367,22.169l-83.375,10.285l-161.906,20.021l-119.258,14.719
						l-0.686,0.091c-0.412,1.737-0.869,3.474-1.326,5.211c-0.411,1.6-0.823,3.2-1.28,4.8c-0.96,3.611-1.966,7.131-3.017,10.65
						c-0.777,2.743-1.646,5.44-2.468,8.136c-0.457,1.371-0.868,2.697-1.28,4.022c-1.691,5.302-3.474,10.513-5.348,15.496
						c-0.503,1.28-0.96,2.514-1.417,3.748c-2.743,7.405-5.668,14.444-8.731,21.027c-0.457,1.097-0.96,2.194-1.508,3.291
						c-1.143,2.422-2.286,4.845-3.474,7.131c-0.868,1.737-1.783,3.474-2.697,5.12c-0.229,0.366-0.457,0.777-0.64,1.188
						c-4.434,8.136-8.959,15.176-13.576,20.981c-0.091,0.046-0.137,0.092-0.137,0.137c-3.2,4.114-6.445,7.542-9.645,10.285
						c-3.611,3.063-7.222,5.714-10.879,7.999c-1.234,0.731-2.469,1.463-3.702,2.194c-4.891,2.788-9.782,4.982-14.627,6.628
						c-27.061,9.234-52.978,2.743-68.748-3.474c-9.599-3.794-15.45-7.496-15.45-7.496c-187.32,74.005-318.966,4.8-383.691-65.548
						c-1.509-1.646-2.971-3.246-4.388-4.891c-3.245-3.702-6.308-7.359-9.142-11.016c-1.646-2.103-3.246-4.205-4.8-6.308
						c-8.365-11.427-14.856-22.49-19.427-32.546l-0.046-0.045v-0.046c-30.123-66.097-41.139-137.45-39.311-211.638
						c5.257-219.5,122.686-463.41,189.423-667.323c5.074-15.541,9.828-30.809,14.261-45.802
						c12.479-42.419,22.032-82.781,27.106-120.401c0,0,68.611-9.005,155.826,3.977c91.969-40.088,429.082-172.419,534.306-8.822
						c22.901,35.608,41.642,82.644,56.909,134.617c10.193,34.648,18.878,71.445,26.192,108.562
						c33.688,169.813,39.951,345.798,39.951,345.798c89.409,6.445,127.029,71.765,140.559,146.958
						C2760.428,3003.823,2731.128,3130.303,2732.133,3137.388z"/>
				</g>
			</g>
			<g>
				<g>
					<path style="fill:#FFFFFF;" d="M2534.623,2295.969c-31.65,115.451-96.469,213.119-231.289,251.037
						c-116.058,32.642-298.654-108.143-423.918-205.927c-42.946-33.524-107.824-94.902-118.936-54.512
						c12.485-42.389,22.042-82.773,27.077-120.384c0,0,68.644-8.991,155.836,3.956c91.97-40.076,429.075-172.38,534.301-8.786
						C2500.609,2196.96,2519.363,2243.972,2534.623,2295.969z"/>
				</g>
			</g>
			<g style="opacity:0.3;">
				<g>
					<path style="fill:#000072;" d="M2560.812,2404.517c-97.957,39.585-214.975,62.531-340.724,62.531
						c-189.606,0-359.419-52.247-473.878-134.662c5.074-15.541,9.828-30.809,14.261-45.802
						c12.479-42.419,22.032-82.781,27.106-120.401c0,0,68.611-9.005,155.826,3.977c91.969-40.088,429.082-172.419,534.306-8.822
						c22.901,35.608,41.642,82.644,56.909,134.617C2544.813,2330.604,2553.498,2367.4,2560.812,2404.517z"/>
				</g>
			</g>
			<g style="opacity:0.3;">
				<g>
					<path style="fill:#6B184E;" d="M2060.41,3254.054c7.542,15.568,18.536,25.501,31.221,26.159
						c16.031,0.831,30.969-13.376,40.316-35.637c-12.853,7.098-28.232,11.762-46.489,11.713
						C2076.526,3256.256,2068.18,3255.433,2060.41,3254.054z"/>
				</g>
			</g>
			<g>
				<g>
					<path style="fill:#000072;" d="M2732.13,3155.654c-8.945,0-16.765-6.572-18.076-15.684c-0.596-4.146-0.032-7.646,2.349-22.373
						c23.943-148.145,14.307-250.781-28.64-305.063c-21.245-26.851-50.132-41.24-88.315-43.989
						c-9.314-0.669-16.626-8.252-16.958-17.588c-0.149-4.16-16.064-417.915-120.159-579.722
						c-112.17-174.35-530.129,23.916-534.333,25.942c-9.102,4.37-20.022,0.537-24.402-8.555c-4.375-9.102-0.549-20.024,8.55-24.399
						c18.371-8.843,451.389-214.136,580.938-12.773c98.828,153.613,121.35,502.915,125.261,582.451
						c40.742,6.323,73.689,25.093,98.096,55.942c74.714,94.434,45.623,274.438,36.064,333.589c-0.913,5.64-1.853,11.455-2.07,13.555
						c0.203,9.111-6.428,17.148-15.679,18.477C2733.873,3155.59,2732.994,3155.654,2732.13,3155.654z M2750.25,3134.765
						c0.002,0.015,0.005,0.034,0.007,0.049C2750.255,3134.799,2750.252,3134.78,2750.25,3134.765z"/>
				</g>
			</g>
			<g>
				<g>
					<path style="fill:#FFFFFF;" d="M2746.599,3289.007c-1.33,0.693-2.655,1.348-3.975,1.968
						c-54.585,25.597-116.739-16.237-116.51-76.525c0.134-35.171,6.221-70.246,9.586-104.471c0.427-4.34,1.212-8.629,2.415-12.821
						l0,0c33.679-274.548,178.144-205.162,203.238-163.434C2897.07,3026.458,2814.8,3253.502,2746.599,3289.007z"/>
				</g>
			</g>
			<g>
				<g>
					<path style="fill:#97979E;" d="M1725.761,3308.66c230.928-83.034,561.69,37.897,903.954-39.988
						c0,0,53.083,53.587,116.901,20.347c68.198-35.522,150.446-262.548,94.734-355.288
						c-25.076-41.743-169.57-111.119-203.245,163.433"/>
				</g>
			</g>
			<g>
				<g>
					<path style="fill:#FFFFFF;" d="M2835.85,3147.17c-22.489,66.92-57.412,125.292-89.226,141.885
						c-63.812,33.186-116.881-20.341-116.881-20.341c-163.14,37.071-323.674,29.026-472.049,19.472
						c-20.798-1.371-41.414-2.743-61.709-4.022v-237.099c74.096,81.135,145.77,123.966,211.501,142.799
						c68.885,19.747,131.143,13.119,182.567-3.383c23.266-7.451,44.293-16.958,62.714-26.923
						c53.709-29.072,85.341-62.349,85.341-62.349c16.638-135.576,60.292-187.32,103.214-199.936
						c44.065-12.89,87.352,15.313,100.06,36.477C2871.046,2983.208,2861.539,3070.789,2835.85,3147.17z"/>
				</g>
			</g>
			<g>
				<g>
					
						<ellipse transform="matrix(0.2902 -0.957 0.957 0.2902 -1077.4867 4854.7109)" style="fill:#FF67A0;" cx="2733.706" cy="3153.665" rx="85.016" ry="54.57"/>
				</g>
			</g>
			<g>
				<g>
					
						<ellipse transform="matrix(0.2902 -0.957 0.957 0.2902 -922.9784 4854.9258)" style="fill:#FF67A0;" cx="2811.118" cy="3049.624" rx="30.497" ry="21.547"/>
				</g>
			</g>
			<g>
				<g>
					
						<ellipse transform="matrix(0.2902 -0.957 0.957 0.2902 -911.045 4780.4517)" style="fill:#FF67A0;" cx="2766.868" cy="3004.34" rx="40.682" ry="28.743"/>
				</g>
			</g>
			<g>
				<g>
					
						<ellipse transform="matrix(0.2902 -0.957 0.957 0.2902 -985.2484 4741.3291)" style="fill:#FF67A0;" cx="2703.383" cy="3034.795" rx="30.739" ry="21.718"/>
				</g>
			</g>
			<g style="opacity:0.3;">
				<g>
					<path style="fill:#000072;" d="M2835.85,3149.349c-22.489,66.92-57.412,125.292-89.226,141.885
						c-63.812,33.186-116.881-20.341-116.881-20.341c-163.14,37.071-323.674,29.026-472.049,19.472
						c-0.868,1.737-1.783,3.474-2.697,5.12c-0.229,0.366-0.457,0.777-0.64,1.188c-4.434,8.136-8.959,15.176-13.576,20.981
						c-0.091,0.046-0.137,0.091-0.137,0.137c-3.2,4.114-6.445,7.542-9.645,10.285c-3.611,3.063-7.222,5.714-10.879,7.999
						c-1.234,0.731-2.469,1.463-3.702,2.194c-4.891,2.788-9.782,4.983-14.627,6.628c-27.061,9.233-52.978,2.742-68.748-3.474
						c104.082-303.059,22.307-467.661,22.307-467.661s-73.169-293.635,224.803-236.322c86.051,16.552,125.253-45.151,194.671-49.564
						c247.857-15.756-37.208,405.915,3.045,515.651c40.253,109.736,151.83,69.544,181.678,68.722
						C2681.258,3171.656,2757.914,3256.86,2835.85,3149.349z"/>
				</g>
			</g>
			<g>
				<g>
					<path style="fill:#000072;" d="M2161.917,3270.103c78.217,5.066,156.151,9.167,233.767,7.341
						c77.556-1.76,154.81-9.529,229.974-26.599l17.047,4.961l-0.002-0.002c0.699,0.635,2.428,2.146,3.805,3.223
						c1.481,1.167,2.999,2.332,4.578,3.438c3.141,2.229,6.418,4.304,9.772,6.184c6.705,3.779,13.729,6.733,20.798,8.835
						c14.193,4.16,28.601,4.194,42.201-0.098c6.656-2.161,13.95-5.452,18.687-8.962c5.422-3.909,10.925-9.353,16.038-15.383
						c10.31-12.114,19.528-26.445,27.698-41.37c16.293-30.042,28.936-62.788,38.203-96.152c4.609-16.704,8.339-33.625,10.959-50.596
						c2.699-16.946,4.324-33.975,4.313-50.706c-0.037-16.685-1.626-33.203-5.917-48.13c-2.107-7.468-4.893-14.504-8.438-20.752
						c-0.973-1.824-1.428-2.502-2.301-3.757c-0.873-1.167-1.824-2.388-2.953-3.601c-2.208-2.439-4.808-4.856-7.622-7.107
						c-11.359-9.07-25.675-15.413-39.745-17.375c-14.148-1.951-28.096,0.574-40.524,7.656
						c-12.419,7.083-23.491,18.237-32.599,31.553c-9.165,13.303-16.765,28.447-23.171,44.321
						c-12.852,31.87-21.354,66.365-29.305,101.252c-1.127,4.949-6.053,8.047-11.001,6.919c-4.325-0.986-7.234-4.875-7.146-9.143
						c0.367-18.367,2.091-36.724,4.783-55.083c1.394-9.167,3.092-18.335,5.095-27.483c2.09-9.126,4.556-18.228,7.338-27.3
						c5.868-18.042,13.234-36.035,23.927-52.925c10.697-16.726,24.685-32.91,43.617-44.026c18.73-11.292,42.095-16.016,63.754-13.24
						c21.749,2.754,41.704,11.306,58.835,24.365c4.29,3.315,8.413,6.96,12.346,11.138c1.971,2.065,3.878,4.346,5.737,6.77
						c1.803,2.38,3.802,5.496,4.976,7.644c5.447,9.419,9.37,19.277,12.268,29.143c5.833,19.783,7.734,39.568,7.987,58.926
						c0.305,38.772-6.353,76.16-16.365,112.317c-10.149,36.145-23.691,71.196-41.88,104.622
						c-9.261,16.646-19.438,33.025-32.769,48.245c-6.707,7.578-14.125,14.949-23.453,21.475c-4.614,3.279-10.281,6.279-14.897,8.33
						c-4.882,2.234-9.989,4.106-15.203,5.698c-20.98,6.34-44.21,5.686-64.504-0.781c-10.2-3.167-19.771-7.62-28.63-12.976
						c-4.44-2.673-8.713-5.564-12.841-8.684c-2.07-1.553-4.091-3.191-6.1-4.883c-2.1-1.799-3.773-3.259-6.302-5.779l-0.024-0.024
						l17.046,4.961c-78.069,17.734-157.867,25.698-237.239,27.5c-79.437,1.865-158.514-2.329-236.97-7.407
						c-10.077-0.647-17.722-9.341-17.075-19.417c0.646-10.078,9.34-17.722,19.417-17.078L2161.917,3270.103z"/>
				</g>
			</g>
			<g>
				<g>
					<path style="fill:#FFFFFF;" d="M2187.816,3203.714c-0.091,0.32-0.183,0.64-0.274,0.959c-0.412,1.737-0.869,3.474-1.326,5.211
						c-0.411,1.6-0.823,3.2-1.28,4.8c-0.96,3.611-1.966,7.131-3.017,10.65c-0.777,2.743-1.646,5.44-2.468,8.136
						c-0.457,1.371-0.868,2.697-1.28,4.022c-1.737,5.302-3.52,10.468-5.348,15.496c-0.503,1.28-0.96,2.514-1.417,3.748
						c-2.788,7.405-5.714,14.444-8.731,21.027c-0.503,1.097-1.006,2.194-1.508,3.291c-2.057,4.297-4.114,8.365-6.171,12.25
						c-0.229,0.366-0.457,0.777-0.64,1.188c-4.48,8.136-9.051,15.176-13.576,20.981c-0.091,0.046-0.137,0.092-0.137,0.137
						c-3.246,4.068-6.491,7.497-9.691,10.239c-3.565,3.017-7.222,5.714-10.833,8.045c-1.234,0.731-2.469,1.463-3.702,2.194
						c-4.891,2.743-9.782,4.937-14.627,6.628c-43.516,14.856-84.198-10.97-84.198-10.97c-187.32,74.005-318.966,4.8-383.691-65.548
						c-1.509-1.646-2.971-3.246-4.388-4.891c-3.245-3.702-6.308-7.359-9.142-11.016c-1.646-2.103-3.246-4.205-4.8-6.308
						c-8.365-11.427-14.856-22.49-19.427-32.546c185.537,152.032,302.281,74.005,356.677,11.336
						c24.272-27.929,36.111-52.841,36.111-52.841c-27.426-243.635,95.214-250.903,157.563-215.798
						C2211.86,2990.933,2211.22,3109.002,2187.816,3203.714z"/>
				</g>
			</g>
			<g>
				<g>
					
						<ellipse transform="matrix(0.0972 -0.9953 0.9953 0.0972 -1277.5822 4957.4844)" style="fill:#FC7E81;" cx="2093.843" cy="3182.963" rx="94.08" ry="51.834"/>
				</g>
			</g>
			<g>
				<g>
					
						<ellipse transform="matrix(0.0972 -0.9953 0.9953 0.0972 -1277.5822 4957.4844)" style="fill:#FF67A0;" cx="2093.843" cy="3182.963" rx="94.08" ry="51.834"/>
				</g>
			</g>
			<g>
				<g>
					
						<ellipse transform="matrix(0.0972 -0.9953 0.9953 0.0972 -1111.5732 4913.9531)" style="fill:#FF67A0;" cx="2152.862" cy="3069.693" rx="27.351" ry="17.364"/>
				</g>
			</g>
			<g>
				<g>
					
						<ellipse transform="matrix(0.0972 -0.9953 0.9953 0.0972 -1122.8983 4834.2266)" style="fill:#FF67A0;" cx="2103.238" cy="3036.069" rx="38.895" ry="24.693"/>
				</g>
			</g>
			<g>
				<g>
					
						<ellipse transform="matrix(0.0972 -0.9953 0.9953 0.0972 -1203.2976 4800.9585)" style="fill:#FF67A0;" cx="2044.71" cy="3063.754" rx="27.666" ry="17.564"/>
				</g>
			</g>
			<g style="opacity:0.3;">
				<g>
					<path style="fill:#000072;" d="M2188.228,3204.582l-0.686,0.091c-0.412,1.737-0.869,3.474-1.326,5.211
						c-0.411,1.6-0.823,3.2-1.28,4.8c-0.96,3.611-1.966,7.131-3.017,10.65c-0.777,2.743-1.646,5.44-2.468,8.136
						c-0.457,1.371-0.868,2.697-1.28,4.022c-1.691,5.302-3.474,10.513-5.348,15.496c-0.503,1.28-0.96,2.514-1.417,3.748
						c-2.743,7.405-5.668,14.444-8.731,21.027c-0.457,1.097-0.96,2.194-1.508,3.291c-2.011,4.297-4.068,8.41-6.171,12.25
						c-0.229,0.366-0.457,0.777-0.64,1.188c-4.434,8.136-8.959,15.176-13.576,20.981c-0.091,0.046-0.137,0.092-0.137,0.137
						c-3.2,4.114-6.445,7.542-9.645,10.285c-3.611,3.063-7.222,5.714-10.879,7.999c-1.234,0.731-2.469,1.463-3.702,2.194
						c-4.891,2.788-9.782,4.982-14.627,6.628c-43.516,14.856-84.198-10.97-84.198-10.97c-187.32,74.005-318.966,4.8-383.691-65.548
						c-1.509-1.646-2.971-3.246-4.388-4.891c-3.245-3.702-6.308-7.359-9.142-11.016c-1.646-2.103-3.246-4.205-4.8-6.308
						c-8.365-11.427-14.856-22.49-19.427-32.546l-0.046-0.045v-0.046c-30.123-66.097-41.139-137.45-39.311-211.638
						c46.579,100.242,132.468,237.693,257.394,252.64c72.542,8.639,110.619-16.501,138.639-29.574
						c13.759-6.445,25.095-9.919,36.888-5.12c29.803,12.205,124.423,106.551,195-14.627c0.868-1.509,1.92-1.234,3.108,0.686
						C2187.954,3203.988,2188.091,3204.262,2188.228,3204.582z"/>
				</g>
			</g>
			<g>
				<g>
					<path style="fill:#000072;" d="M1805.668,2168.616c-9.359,66.951-28.901,130.479-49.886,192.781
						c-21.218,62.275-44.6,123.364-67.183,184.509c-22.585,61.123-44.569,122.273-63.364,184.165
						c-18.711,61.863-34.532,124.519-43.259,187.878c-8.711,63.235-10.361,127.437,0.912,189.263
						c2.748,15.449,6.365,30.706,10.892,45.657c4.408,14.99,9.712,29.695,15.967,43.972c3.088,7.48,6.09,13.494,9.801,19.963
						c3.831,6.311,7.872,12.593,12.482,18.579c9.063,12.056,19.414,23.362,30.653,33.73c22.504,20.767,48.571,37.729,76.519,50.378
						c28.054,12.454,58.041,20.566,88.693,23.811c15.303,1.897,30.804,1.943,46.268,1.711c15.468-0.852,30.972-2.019,46.322-4.832
						c30.747-5.095,61.035-13.877,90.366-25.461l16.527,1.572l-0.006-0.002c0.812,0.459,2.856,1.541,4.424,2.28
						c1.707,0.803,3.451,1.587,5.234,2.305c3.56,1.455,7.22,2.717,10.906,3.755c7.375,2.078,14.866,3.271,22.153,3.503
						c14.646,0.554,28.335-3.333,40.239-11.233c1.45-1.069,2.939-2.061,4.375-3.167c1.324-1.133,3.004-2.373,4.061-3.384
						c2.133-1.958,4.458-4.502,6.676-7.458c4.467-5.881,8.678-12.839,12.476-20.181c7.612-14.727,13.967-30.823,19.519-47.195
						c10.968-32.878,18.379-67.383,22.091-101.885c3.535-34.395,3.499-69.482-4.185-101.221
						c-3.799-15.752-9.651-30.608-18.287-42.217c-8.601-11.902-19.355-19.326-34.152-25.054
						c-14.197-5.503-29.576-7.715-43.787-5.996c-14.25,1.721-27.173,7.659-37.676,17.458c-10.546,9.763-18.625,23.262-24.369,38.296
						c-5.789,15.049-9.353,31.587-11.467,48.508c-2.14,16.943-3.112,34.29-4.22,51.868c-0.951,17.595-1.611,35.413-3.353,53.638
						l-0.007,0.083c-0.491,5.127-5.044,8.884-10.17,8.396c-3.822-0.366-6.884-2.998-7.992-6.433
						c-5.734-17.849-9.175-36.257-10.966-54.956c-1.88-18.701-1.809-37.729,0.273-56.846c2.08-19.099,5.767-38.413,12.675-57.405
						c6.879-18.875,17.203-37.786,33.085-53.096c7.908-7.595,17.117-14.175,27.2-19.023c10.074-4.861,20.902-8.071,31.782-9.583
						c21.848-2.979,43.455,0.342,63.148,7.678c9.897,3.762,19.225,8.235,28.724,14.924c9.257,6.514,17.198,14.609,23.734,23.337
						c13.184,17.549,20.717,37.263,25.627,56.628c4.76,19.487,6.779,38.965,7.357,58.201c0.541,19.246-0.399,38.296-2.424,57.126
						c-4.148,37.659-12.14,74.534-24.202,110.508c-6.058,17.998-13.213,35.732-22.623,53.083c-4.705,8.684-9.982,17.28-16.636,25.75
						c-3.324,4.229-7.122,8.438-11.752,12.527c-2.299,2.043-4.307,3.469-6.487,5.215c-2.185,1.626-4.486,3.14-6.742,4.683
						c-9.285,5.908-19.639,10.486-30.421,13.335c-10.804,2.742-21.958,3.821-32.782,3.218c-10.857-0.491-21.343-2.703-31.343-5.825
						c-5.001-1.584-9.878-3.442-14.655-5.571c-2.391-1.057-4.756-2.205-7.117-3.413c-2.48-1.309-4.451-2.351-7.506-4.265
						l-0.049-0.032l16.526,1.572c-31.385,12.395-64.144,21.946-97.819,27.529c-16.787,3.049-33.906,4.392-51.017,5.3
						c-17.153,0.291-34.386,0.193-51.517-1.904c-34.275-3.633-68.081-12.739-99.69-26.794
						c-31.522-14.255-60.863-33.35-86.364-56.873c-12.747-11.768-24.547-24.619-35.104-38.657
						c-5.342-6.96-10.179-14.407-14.792-22.056c-4.458-7.666-8.69-16.311-11.812-23.933c-6.838-15.627-12.633-31.697-17.439-48.022
						c-4.927-16.292-8.851-32.859-11.825-49.548c-12.17-66.868-10.228-134.9-1.161-200.823
						c9.113-66.074,25.428-130.439,44.493-193.503c19.158-63.076,41.389-124.873,64.058-186.226
						c22.661-61.348,45.959-122.249,66.857-183.591c20.69-61.284,39.561-123.306,48.265-185.867l0.027-0.198
						c1.392-10,10.627-16.98,20.63-15.588c10.001,1.392,16.981,10.627,15.59,20.627L1805.668,2168.616z"/>
				</g>
			</g>
			<g>
				<g>
					<path style="fill:#000072;" d="M2056.351,2926.57c-0.267-1.765-0.753-4.536-1.263-6.863c-0.48-2.437-1.008-4.9-1.616-7.344
						c-1.172-4.902-2.628-9.758-4.258-14.531c-3.187-9.575-7.131-18.843-11.825-27.59c-9.431-17.473-22.224-32.69-38.258-43.711
						c-7.993-5.505-16.606-10.344-25.999-13.655c-9.29-3.542-19.087-6.182-29.25-7.725c-20.278-3.252-41.643-3.347-63.146-1.409
						c-3.983,0.366-7.51-2.563-7.876-6.548c-0.326-3.523,1.951-6.694,5.234-7.632c21.749-6.167,44.786-9.565,68.336-8.14
						c23.452,1.179,47.639,7.756,68.566,20.847c20.991,12.939,38.079,31.931,49.534,53.179c5.829,10.603,10.348,21.77,13.838,33.174
						c1.68,5.728,3.135,11.501,4.272,17.366c0.583,2.93,1.11,5.874,1.527,8.87c0.404,3.098,0.712,5.781,0.944,9.5
						c0.497,7.944-5.541,14.785-13.484,15.281c-7.499,0.469-14.015-4.883-15.14-12.166L2056.351,2926.57z"/>
				</g>
			</g>
			<g style="opacity:0.3;">
				<g>
					<g>
						<path style="fill:#6B184E;" d="M1448.761,1954.222l0.795,2.499c-0.236-0.739-0.41-1.514-0.646-2.253
							C1448.885,1954.357,1448.798,1954.283,1448.761,1954.222z"/>
					</g>
				</g>
			</g>
			<g>
				<g>
					<path style="fill:#97979E;" d="M2301.409,1000.816l511.962,328.577c21.91-53.823,28.345-203.969,12.417-349.313
						c-0.626-5.645-1.252-11.289-2.002-16.925c-17.351-142.313-56.566-276.11-124.009-305.485
						c-49.87-21.673-172.292,92.643-270.284,197.523c-3.152,3.334-6.238,6.727-9.332,9.994
						C2366.474,923.187,2321.302,976.747,2301.409,1000.816z"/>
				</g>
			</g>
			<g style="opacity:0.4;">
				<g>
					<path style="fill:#FFFFFF;" d="M2420.162,865.186c85.085-25.662,219.976-162.632,256.497-160.315
						c55.666,3.604,123.48,187.322,147.128,258.283c-17.351-142.313-56.566-276.11-124.009-305.485
						c-49.87-21.673-172.292,92.643-270.284,197.523C2426.342,858.526,2423.256,861.919,2420.162,865.186z"/>
				</g>
			</g>
			<g style="opacity:0.3;">
				<g>
					<path style="fill:#000072;" d="M2301.409,1000.816l511.962,328.577c21.91-53.823,28.345-203.969,12.417-349.313
						c-35.846,9.698-78.759,11.806-123.201-7.167c-98.33-41.879-179.796-110.125-273.094-117.721
						C2371.742,916.9,2322.459,975.357,2301.409,1000.816z"/>
				</g>
			</g>
			<g>
				<g>
					<path style="fill:#000072;" d="M2813.375,1346.996c-2.212,0-4.46-0.42-6.638-1.306c-9.014-3.669-13.347-13.953-9.678-22.969
						c18.706-45.955,28.113-191.074,10.688-345.386c-18.848-166.953-61.831-280.408-114.978-303.489
						c-9.299-4.038-50.439-6.687-188.203,129.272c-84.382,83.276-166.458,180.977-189.602,208.938
						c-6.206,7.5-17.31,8.543-24.814,2.339c-7.498-6.206-8.545-17.317-2.339-24.815c23.411-28.281,106.443-127.119,191.997-211.55
						c148.284-146.343,200.579-147.988,227.007-136.514c90.112,39.136,123.862,224.722,135.959,331.863
						c16.655,147.515,11.038,303.411-13.069,362.632C2826.922,1342.851,2820.33,1346.994,2813.375,1346.996z"/>
				</g>
			</g>
			<g>
				<g>
					<path style="fill:#97979E;" d="M3117.479,1858.833c-0.829,36.432-76.109,8.781-92.528,2.336
						c-1.35-0.538-2.566,0.913-2.062,2.479c2.005,6.091,7.136,19.683,19.017,41.164c13.829,25.005,25.248,44.688,22.919,59.463
						c-0.114,0.864-0.341,1.736-0.573,2.55c-4.481,15.888-30.528,21.792-61.438,20.71c-46.533-1.584-74.05,50.845-74.05,50.845
						c-4.155,7.929-21.413,30.036-21.466,30.096c-75.228,89.756-208.756,208.75-498.142,249.493l-358.413,34.091
						c-309.371-24.398-452.052-165.485-522.499-208.021c-12.496-7.563-22.729-12.021-31.193-12.199
						c-30.936-0.625-57.286-2.696-64.615-17.569c-6.81-13.938,1.181-36.284,10.864-64.968c7.874-23.253,10.46-37.587,11.351-43.929
						c0.235-1.614-1.217-2.831-2.422-2.065c-15.025,9.338-84.159,49.976-91.502,14.317c-4.058-19.774,22.281-83.032,27.805-145.874
						c15.909-182.144,21.95-218.352,21.95-218.352c0.148-1.209,19.674-132.483,57.636-231.293
						c-67.278-96.998-147.617-510.179-64.839-598.04c60.649-64.286,365.018,98.528,413.765,150.503
						c85.171-51.072,183.709-86.644,295.485-101.797c22.579-3.103,44.767-5.208,66.622-6.322c0.508-0.091,1.08-0.072,1.649-0.11
						c81.935-4.485,156.241,11.981,228.191,30.775c279.867,73.589,447.152,314.002,447.152,314.002
						c40.321,58.362,72.989,111.58,98.702,166.688c12.703,26.965,23.666,54.388,33.056,83.058c0,0,0.008,0.114,0.14,0.391
						c0.004,0.057,0.008,0.114,0.068,0.167c0.015,0.227,0.152,0.561,0.292,0.951c3.945,12.073,31.081,95.411,75.597,257.941
						C3080.67,1781.164,3117.905,1838.646,3117.479,1858.833z"/>
				</g>
			</g>
			<g style="opacity:0.4;">
				<g>
					<path style="fill:#FFFFFF;" d="M1393.299,873.27c54.958-58.25,310.11,69.956,393.763,133.202
						c13.034,9.854,30.653,10.816,44.986,2.969c79.283-43.403,169.498-73.814,270.526-87.489c22.599-3.13,44.767-5.231,66.627-6.312
						c0.494-0.095,1.057-0.07,1.617-0.108c81.931-4.519,156.263,11.964,228.189,30.794
						c279.903,73.59,447.189,313.957,447.189,313.957c40.316,58.364,72.981,111.614,98.707,166.701
						c12.668,26.963,23.619,54.415,33.024,83.031c0,0,0.161,0.552,0.228,0.61c0.012,0.187,0.162,0.551,0.311,0.916
						c3.931,12.11,138.765,359.116,139.04,347.288c0.404-20.21-36.852-77.654-53.528-138.529
						c-44.502-162.5-71.611-245.864-75.6-257.909c-0.091-0.431-0.236-0.733-0.253-0.982c-0.066-0.058-0.071-0.12-0.075-0.183
						c-0.141-0.241-0.149-0.365-0.149-0.365c-9.408-28.679-20.355-56.069-33.086-83.027
						c-25.668-55.154-58.329-108.341-98.645-166.705c0,0-167.291-240.43-447.194-314.019
						c-71.922-18.768-146.254-35.251-228.189-30.794c-0.56,0.037-1.124,0.012-1.618,0.108c-21.857,1.144-44.087,3.249-66.623,6.374
						c-111.78,15.13-210.328,50.686-295.53,101.788c-48.703-51.994-353.106-214.808-413.749-150.533
						c-17.097,18.197-27.21,50.239-31.966,90.485C1376.712,897.245,1383.963,883.203,1393.299,873.27z"/>
				</g>
			</g>
			<g>
				<g>
					<path style="fill:#FFFFFF;" d="M1528.229,2144.067c70.44,42.487,213.119,183.577,522.488,207.965l358.466-34.058
						c289.346-40.764,422.891-159.758,498.085-249.497c0.058-0.066,9.672-12.392,16.346-21.959c2.161-3.206,4.09-6.146,5.143-8.153
						c0,0,27.505-52.383,74.033-50.858c30.943,1.126,56.981-4.795,61.482-20.716c0.199-0.763,0.452-1.655,0.581-2.538
						c-52.158,12.471-137.341,21.643-276.442,19.659c-273.268-3.985-221.97-226.416-398.1-218.622
						c-210.96,9.3-131.439,190.026-310.748,288.011c-181.416,99.187-405.775,102.443-548.127,91.052
						C1530.365,2144.238,1529.299,2144.184,1528.229,2144.067z"/>
				</g>
			</g>
			<g style="opacity:0.3;">
				<g>
					<path style="fill:#000072;" d="M1528.229,2144.067c70.44,42.487,213.119,183.577,522.488,207.965l358.466-34.058
						c289.346-40.764,422.891-159.758,498.085-249.497c0.058-0.066,9.672-12.392,16.346-21.959
						c-122.631,82.088-629.183,368.641-1392.179,97.836C1530.365,2144.238,1529.299,2144.184,1528.229,2144.067z"/>
				</g>
			</g>
			<g>
				<g>
					<path style="fill:#F27E80;" d="M1610.716,1151.207c-60.279,74.71-92.974,174.017-100.074,163.519
						c-0.69-1.003-1.4-2.219-2.131-3.648c-15.883-29.834-49.425-151.078-60.295-261.012c-1.708-17.734-2.786-33.44-3.202-47.336
						c-1.155-37.516,2.045-61.955,7.374-77.923c6.636-19.528,25.176-27.159,42.731-22.578
						c46.673,12.248,182.455,79.163,229.196,126.086C1732.647,1036.654,1671.048,1076.492,1610.716,1151.207z"/>
				</g>
			</g>
			<g style="opacity:0.3;">
				<g>
					<path style="fill:#000072;" d="M1610.716,1151.207c-60.279,74.71-92.974,174.017-100.074,163.519
						c-0.69-1.003-1.4-2.219-2.131-3.648c9.183-59.18,42.398-142.994,68.2-203.772c35.28-83.001-30.383-139.622-83.781-153.185
						c-18.314-4.667-36.543,24.965-47.917,48.609c-1.155-37.516,2.045-61.955,7.374-77.923
						c6.636-19.528,25.176-27.159,42.731-22.578c46.673,12.248,182.455,79.163,229.196,126.086
						C1732.647,1036.654,1671.048,1076.492,1610.716,1151.207z"/>
				</g>
			</g>
			<g>
				<g>
					<path style="fill:#000072;" d="M1511.859,1329.914c-5.261,0-10.127-2.61-13.176-7.117
						c-17.59-26.013-53.618-157.908-64.797-271.301c-5.989-60.757-4.402-103.694,4.851-131.267
						c8.594-25.374,33.836-38.789,60.027-31.924c47.395,12.402,186.455,80.317,235.791,129.814
						c3.293,3.303,5.056,7.717,4.963,12.429c-0.22,11.282-10.093,20.444-33.945,42.583c-22.346,20.74-52.952,49.143-83.611,87.136
						c-33.813,41.904-58.911,92.19-75.517,125.466c-16.621,33.308-21.638,43.359-33.53,44.143
						C1512.559,1329.902,1512.208,1329.914,1511.859,1329.914z M1462.591,1048.664c9.546,96.826,35.474,195.208,51.121,237.961
						c2.258-4.424,4.644-9.202,6.924-13.772c17.163-34.39,43.098-86.362,78.879-130.701c31.96-39.607,64.744-70.032,86.436-90.164
						c7.649-7.1,16.008-14.858,21.064-20.181c-50.93-45.063-173.911-104.702-215.554-115.598
						c-8.87-2.314-20.828-0.242-25.393,13.237C1458.26,952.709,1457.088,992.834,1462.591,1048.664L1462.591,1048.664z"/>
				</g>
			</g>
			<g>
				<g>
					<path style="fill:#000072;" d="M2050,2361.152c-106.041-5.371-212.362-27.751-310.803-70.769
						c-49.249-21.267-96.332-47.725-140.785-77.358c-22.186-14.763-43.777-30.559-65.023-44.863
						c-10.475-6.951-21.501-13.875-30.481-17.119c-2.146-0.735-4.086-1.194-5.393-1.318c-0.355,0.005-0.446-0.032-1.011-0.063
						l-2.523-0.042l-5.083-0.112c-6.813-0.186-13.744-0.474-20.942-1.15c-7.212-0.713-14.67-1.702-22.861-4.094
						c-4.082-1.204-8.438-2.866-12.957-5.425c-4.498-2.593-9.343-6.365-13.132-11.765c-7.509-11.277-7.661-22.417-7.092-30.835
						c0.72-8.621,2.499-15.95,4.42-22.839c1.935-6.887,4.059-13.372,6.169-19.719c2.123-6.392,4.25-12.498,6.08-18.411
						c1.849-5.981,3.558-11.97,4.985-17.891c0.714-2.957,1.362-5.898,1.912-8.772l0.731-4.219l0.15-1.011l0.071-0.5
						c-0.189,1.316-0.209,2.795-0.011,4.282c0.396,3.003,1.655,6.108,4.045,8.772c2.347,2.644,6.204,5.122,11.266,5.51
						c2.493,0.195,5.072-0.212,7.242-1.045c1.096-0.42,2.001-0.862,2.925-1.443l-0.281,0.173l-1.122,0.693l-2.242,1.362
						l-4.496,2.661c-3.007,1.748-6.038,3.45-9.103,5.112c-6.134,3.315-12.4,6.472-18.914,9.399
						c-6.521,2.922-13.269,5.63-20.56,7.888c-7.36,2.183-15.084,4.18-24.812,4.28c-4.873-0.034-10.428-0.535-16.614-2.986
						c-6.158-2.344-12.649-7.537-16.261-13.638c-1.851-2.996-3.153-6.086-3.983-8.948c-0.442-1.497-0.751-2.734-1.041-4.329
						c-0.261-1.577-0.514-3.298-0.554-4.561c-0.321-5.498,0.148-9.59,0.629-13.557c1.064-7.747,2.595-14.534,4.164-21.218
						l4.884-19.524c6.613-25.503,12.861-50.347,16.373-75.149c0.885-6.25,1.519-12.205,2.079-18.623l1.774-19.702l3.611-39.404
						l7.692-78.835l4.222-39.47l2.313-19.797l1.257-9.966l1.479-10.461l-0.172,1.311l0.696-4.758l0.602-3.784l1.243-7.49
						l2.615-14.897c1.792-9.915,3.743-19.785,5.747-29.646c4.031-19.717,8.445-39.358,13.232-58.938
						c9.68-39.136,20.942-78.022,35.641-116.238l0.009-0.022l1.93,16.047c-14.332-20.913-23.56-42.207-32.08-63.816
						c-8.394-21.582-15.491-43.379-21.962-65.305c-12.938-43.84-22.775-88.311-30.872-133.091
						c-7.969-44.805-13.953-89.993-17.076-135.637c-1.537-22.825-2.357-45.764-1.97-68.862c0.38-23.091,1.851-46.34,5.707-69.785
						c1.947-11.716,4.507-23.489,8.185-35.273c3.667-11.763,8.524-23.621,15.822-35.042c1.719-2.866,3.931-5.637,6.005-8.401
						c2.327-2.703,4.409-5.317,7.793-8.318c6.302-5.627,13.511-9.39,20.468-11.865c14.058-4.929,27.284-5.562,39.838-5.335
						c25.059,0.889,48.131,6.067,70.607,12.268c22.443,6.296,44.17,13.977,65.51,22.378c42.646,16.882,83.752,36.626,123.851,58.364
						c20.034,10.915,39.784,22.371,59.188,34.717c9.705,6.177,19.313,12.586,28.816,19.475c9.539,7.036,18.813,13.914,28.401,23.816
						l0.031,0.029l-22.402-3.13c27.968-16.707,56.952-31.726,86.785-44.807c29.871-12.988,60.53-24.128,91.725-33.398
						c31.224-9.177,62.998-16.362,95.024-21.816c31.984-5.386,64.285-9.297,96.875-10.901l-2.339,0.271
						c3.188-0.566,5.516-0.335,4.916-0.405l2.096-0.083l4.193-0.163l8.386-0.332l17.379-0.117
						c11.58,0.164,23.153,0.554,34.669,1.419c23.044,1.638,45.898,4.629,68.459,8.567c22.549,3.994,44.807,8.904,66.813,14.265
						c11.016,2.703,21.907,5.432,32.881,8.384c11.021,3.274,22.23,5.996,33.077,9.78c87.69,27.954,168.8,73.357,241.273,128.706
						c36.29,27.707,70.413,58.108,102.43,90.569c15.99,16.26,31.407,33.081,46.238,50.479c7.388,8.73,14.644,17.578,21.7,26.694
						c3.572,4.597,6.931,9.067,10.559,14.141l9.634,14.063c50.856,74.634,96.912,154.192,125.321,242.717
						c3.086,9.614-2.207,19.91-11.821,22.996c-9.614,3.083-19.91-2.207-22.996-11.821l-0.012-0.039l-0.104-0.327l-0.491-1.541
						l-0.049-0.154c-3.065-9.622,2.25-19.907,11.871-22.971c9.586-3.054,19.832,2.217,22.938,11.772
						c18.401,56.653,34.843,113.005,51.102,169.766l23.8,85.146c7.089,27.351,17.97,53.098,30.164,79.636
						c6.05,13.298,12.466,26.406,18.438,41.069c1.479,3.718,2.924,7.566,4.242,11.868c1.24,4.414,2.677,8.889,2.781,16.348
						c-0.061,6.189-1.587,13.989-6.537,20.842c-4.894,6.86-11.935,10.852-17.686,12.808c-5.883,2.017-11.124,2.659-15.946,2.913
						c-4.84,0.239-9.319,0.029-13.634-0.371c-8.608-0.823-16.581-2.402-24.333-4.282c-7.743-1.895-15.239-4.119-22.616-6.57
						c-3.688-1.226-7.344-2.512-10.989-3.862l-5.474-2.085c0.118,0.044-0.75-0.291,0.178,0.066c1.117,0.403,2.247,0.679,3.605,0.857
						c2.587,0.339,5.581-0.012,8.064-0.977c5.137-2.019,7.975-5.671,9.423-9.077c1.458-3.469,1.543-7.112,0.785-10.127
						c-0.276-1.038-0.399-1.316-0.276-0.967l0.089,0.266l0.179,0.535c4.167,11.929,10.565,24.761,17.294,36.995
						c6.996,12.917,14.72,25.542,21.019,41.924c1.509,4.219,2.893,8.76,3.792,13.945c0.846,5.208,1.132,11.372-0.353,17.959
						c-0.597,3.164-2.1,7.131-3.927,10.215c-1.851,3.203-4.109,5.969-6.466,8.271c-4.761,4.629-9.746,7.437-14.427,9.583
						c-9.425,4.165-18.113,5.813-26.536,6.929c-8.416,1.062-16.559,1.353-24.587,1.245c-4.625-0.059-6.552-0.217-9.187,0.071
						c-2.546,0.203-5.073,0.649-7.584,1.36c-5.027,1.343-9.998,3.708-14.813,6.802c-9.614,6.243-18.456,15.671-25.562,26.111
						c-0.875,1.301-1.737,2.617-2.526,3.916l-1.13,1.904l-1.299,2.302c-2.654,4.539-4.777,7.454-7.083,10.745
						c-4.528,6.335-9.045,12.295-13.666,18.267c-2.836,3.757-5.226,6.257-7.668,9.202l-7.445,8.516
						c-4.996,5.647-10.123,11.189-15.365,16.631c-20.873,21.848-43.309,42.295-67.115,60.947
						c-23.885,18.56-49.058,35.366-75.193,50.359c-52.242,30.093-108.188,52.852-165.48,69.546
						c-57.286,16.86-115.964,27.661-174.822,34.417c-5.017,0.574-9.552-3.027-10.127-8.044c-0.555-4.834,2.769-9.221,7.502-10.049
						l0.076-0.012c57.566-9.944,114.434-23.218,169.437-41.589c27.491-9.192,54.427-19.822,80.682-31.755
						c26.248-11.931,51.869-25.156,76.29-40.239c24.49-14.968,47.894-31.567,69.971-49.729
						c22.129-18.096,43.009-37.659,62.404-58.694c4.882-5.227,9.618-10.596,14.366-15.959l7.035-8.127
						c2.239-2.722,4.886-5.601,6.418-7.766c4.337-5.691,8.657-11.492,12.635-17.151c1.915-2.727,4.014-5.847,5.039-7.676
						l1.399-2.507l1.692-2.834c1.127-1.838,2.283-3.596,3.466-5.342c9.497-13.755,20.999-26.379,36.08-36.23
						c7.549-4.844,15.991-8.916,25.189-11.37c4.572-1.262,9.318-2.1,14.1-2.48c4.689-0.496,10.135-0.186,12.854-0.166
						c6.672,0.115,13.26-0.134,19.442-0.898c6.132-0.75,12.014-2.134,16.047-3.97c1.995-0.884,3.444-1.89,3.94-2.424l0.331-0.366
						c0.011-0.093-0.092,0.408-0.05-0.051c0.139-0.591,0.261-1.914-0.073-3.95c-0.372-2.061-1.08-4.592-2.048-7.297
						c-4.198-11.145-11.597-23.918-18.676-36.785c-7.385-13.54-14.325-27.058-19.91-42.903l-0.259-0.774l-0.129-0.386
						c0.046,0.132-0.143-0.366-0.472-1.626c-0.994-3.906-0.851-8.511,0.964-12.83c1.794-4.246,5.299-8.65,11.304-10.984
						c2.908-1.138,6.376-1.543,9.415-1.14c1.589,0.195,2.937,0.547,4.274,1.016l0.823,0.31l4.833,1.841
						c3.251,1.206,6.532,2.361,9.822,3.455c6.577,2.185,13.195,4.141,19.738,5.74c6.53,1.594,13.035,2.832,19.07,3.401
						c5.891,0.627,11.842,0.249,14.099-0.647c1.165-0.425,0.682-0.481,0.083,0.349c-0.591,0.864-0.387,1.162-0.345,0.042
						c-0.042,0.056,0.001-0.554-0.262-1.636c-0.188-0.979-0.529-2.273-0.948-3.628c-0.835-2.729-1.954-5.781-3.198-8.894
						c-5.11-12.588-11.581-25.94-17.723-39.404c-6.2-13.506-12.31-27.3-17.843-41.511c-2.767-7.107-5.394-14.319-7.816-21.66
						c-1.215-3.667-2.361-7.375-3.468-11.106l-3.062-10.923l-23.705-84.81c-16.132-56.335-32.67-112.937-50.614-168.184
						l34.761-11.353l0.491,1.541l-34.933,10.808l-2.443-7.373l-2.664-7.732c-1.81-5.139-3.663-10.266-5.598-15.364
						c-3.851-10.198-7.948-20.305-12.275-30.322c-8.662-20.01-18.252-39.81-28.511-59.131
						c-20.59-38.721-44.137-76.096-69.055-112.761l-9.338-13.633c-2.883-4.026-6.233-8.513-9.534-12.747
						c-6.641-8.582-13.578-17.041-20.645-25.393c-14.205-16.665-29.045-32.861-44.441-48.513
						c-30.835-31.26-63.715-60.554-98.579-87.168c-69.644-53.188-147.136-96.455-230.212-122.922
						c-10.289-3.606-20.87-6.143-31.293-9.26c-10.635-2.861-21.454-5.574-32.172-8.203c-21.478-5.232-42.949-9.961-64.476-13.774
						c-21.526-3.755-43.109-6.567-64.712-8.105c-10.801-0.813-21.604-1.172-32.399-1.328l-16.187,0.107l-8.386,0.332l-4.192,0.164
						l-2.096,0.083c-1.996,0.005-1.078,0.124,0.731-0.173l-2.341,0.271c-30.947,1.519-61.891,5.261-92.615,10.435
						c-30.667,5.21-61.021,12.117-90.834,20.818c-29.791,8.769-59.041,19.311-87.529,31.602
						c-28.45,12.385-56.078,26.609-82.754,42.439c-7.288,4.324-16.376,2.949-22.085-2.803l-0.319-0.327l-0.02-0.02
						c-6.027-6.287-14.728-13.069-23.29-19.285c-8.689-6.292-17.776-12.356-27.025-18.232c-18.508-11.763-37.648-22.854-57.07-33.42
						c-38.889-21.057-78.949-40.251-119.869-56.416c-20.46-8.042-41.16-15.322-61.984-21.148
						c-20.753-5.776-41.923-10.261-61.838-10.908c-9.83-0.247-19.427,0.608-26.616,3.24c-3.601,1.279-6.473,2.925-8.553,4.795
						c-0.874,0.691-2.328,2.454-3.678,3.994c-1.249,1.753-2.625,3.34-3.766,5.31c-4.819,7.522-8.705,16.582-11.678,26.252
						c-3.013,9.663-5.261,19.89-6.985,30.325c-3.436,20.906-4.847,42.62-5.182,64.429c-0.355,21.826,0.436,43.828,1.931,65.823
						c3.036,44.004,8.878,88.022,16.671,131.667c7.819,43.645,17.783,86.941,29.753,129.438
						c6.066,21.211,12.729,42.227,20.458,62.583c7.792,20.161,16.315,40.525,27.153,56.929l0.094,0.139
						c3.212,4.863,3.679,10.82,1.837,15.908l-0.009,0.022c-13.519,36.226-24.102,74.021-33.132,112.217
						c-4.47,19.119-8.59,38.347-12.335,57.654c-1.87,9.651-3.646,19.326-5.344,28.999l-2.496,14.504l-2.151,13.438l-0.171,1.311
						l-1.246,9.109l-1.184,9.641l-2.208,19.458l-4.056,39.131l-7.399,78.511l-3.472,39.309l-1.705,19.663
						c-0.593,6.702-1.373,13.848-2.36,20.637c-3.958,27.395-10.728,53.723-17.385,79.182l-4.755,18.799
						c-1.471,6.13-2.8,12.219-3.533,17.527c-0.352,2.556-0.494,5.059-0.415,6.138c-0.085,0.32,0.369,1.501,0.105,0.879
						c-0.194-0.454-1.322-1.284-1.36-1.196c0,0,1.053,0.315,2.747,0.308c3.478,0.034,8.737-1.001,13.959-2.607
						c5.298-1.624,10.815-3.787,16.317-6.24c5.508-2.458,11.024-5.212,16.483-8.147c2.728-1.47,5.446-2.986,8.136-4.543l4.014-2.358
						l1.981-1.199l0.98-0.603l0.245-0.149c1.11-0.671,2.189-1.228,3.479-1.714c2.556-0.974,5.549-1.448,8.453-1.223
						c5.889,0.447,10.511,3.364,13.407,6.614c2.935,3.284,4.54,7.173,5.045,10.991c0.25,1.897,0.22,3.787-0.015,5.513l-0.104,0.723
						l-0.216,1.433l-0.967,5.513c-0.697,3.594-1.479,7.083-2.319,10.525c-1.68,6.882-3.608,13.56-5.668,20.156
						c-2.086,6.665-4.313,12.993-6.355,19.097c-2.063,6.145-4.045,12.185-5.685,17.976c-1.648,5.774-2.88,11.34-3.295,15.852
						c-0.566,4.561,0.571,7.356,0.488,7.153c0,0,0.355,0.515,1.537,1.23c1.21,0.693,3.005,1.509,5.234,2.173
						c4.446,1.37,10.088,2.302,15.969,2.908c5.912,0.615,12.147,0.947,18.499,1.174l4.792,0.151l2.416,0.061l3.917,0.261
						c5.248,0.581,9.7,1.873,13.766,3.303c7.964,2.969,14.556,6.545,20.697,10.254c6.143,3.708,11.871,7.546,17.466,11.411
						c22.188,15.522,42.854,31.235,64.287,46.038c42.491,29.866,86.992,56.384,133.989,78.115
						c93.899,43.789,196.244,68.491,300.11,79.553c5.022,0.535,8.661,5.039,8.126,10.061
						C2059.047,2357.83,2054.805,2361.384,2050,2361.152z"/>
				</g>
			</g>
			<g>
				<g>
					<g>
						<path style="fill:#000072;" d="M2652.798,1347.291c6.239-13.429-76.184-141.321-172.11-98.232
							c-35.139,15.784-24.657,47.27-2.121,54.625c21.451,7.001,52.547,2.083,79.84,9.385
							C2611.618,1327.306,2646.559,1360.719,2652.798,1347.291z"/>
					</g>
				</g>
				<g>
					<g>
						<path style="fill:#000072;" d="M1875.419,1436.892c-9.656-11.226,34.886-156.712,138.914-141.33
							c38.108,5.635,36.582,38.784,16.895,51.99c-18.739,12.57-50.001,16.293-74.28,30.742
							C1909.613,1406.463,1885.074,1448.118,1875.419,1436.892z"/>
					</g>
				</g>
			</g>
			<g>
				<g>
					<g>
						<path style="fill:#FFFFFF;" d="M2507.388,1885.104c0,0,22.945,45.786-6.244,66.951c-37.665,27.313-79.772-1.571-99.763-24.179
							c0,0-36.791,70.934-96.667,49.042c-40.08-14.654-28.448-70.142-28.448-70.142"/>
					</g>
				</g>
			</g>
			<g>
				<g>
					<g>
						<path style="fill:#000072;" d="M2765.068,1710.955c-2.869-6.516-6.301-13.66-9.921-20.212
							c-3.734-6.602-7.671-13.022-11.875-19.153c-8.45-12.209-18.004-23.342-28.794-32.019c-5.417-4.302-11.034-8.083-16.876-11.165
							c-5.847-3.091-12.01-5.154-18.207-6.77c-6.202-1.65-12.644-2.249-19.136-2.261c-6.467-0.12-13.093,0.728-19.869,1.997
							c-13.339,2.571-25.795,6.797-36.383,13.743c-10.752,6.733-19.297,16.467-25.93,27.966
							c-13.182,23.271-17.322,53.293-15.105,83.452l0.011,0.144c0.374,5.088-3.448,9.517-8.536,9.89
							c-4.12,0.303-7.809-2.156-9.261-5.798c-6.299-15.842-9.486-33.066-9.596-50.664c0.043-4.397,0.367-8.821,0.571-13.269
							c0.408-4.436,1.287-8.853,1.951-13.308c0.891-4.421,2.183-8.813,3.314-13.242c1.426-4.353,3.276-8.623,4.955-12.944
							c7.432-17.085,19.956-32.632,35.516-43.982c15.662-11.313,33.992-17.861,51.973-20.554
							c17.737-3.225,37.523-2.471,55.665,3.315c18.254,5.659,34.495,16.243,47.191,29.033c12.885,12.739,22.526,27.556,30.05,42.871
							c3.765,7.671,6.953,15.535,9.578,23.547c2.637,8.098,4.888,15.884,6.388,24.7c0.85,4.993-2.51,9.727-7.502,10.576
							c-4.23,0.72-8.276-1.582-9.929-5.337L2765.068,1710.955z"/>
					</g>
				</g>
				<g>
					<g>
						<path style="fill:#000072;" d="M1912.097,1823.787c-1.737-17.356-0.745-33.872,2.317-50.828
							c3.162-16.797,8.558-33.662,17.628-49.397c8.976-15.647,21.775-30.281,37.999-40.457c16-10.356,34.886-16.35,52.856-17.944
							l6.79-0.828l6.979-0.093c4.667,0.078,9.288-0.369,14.022,0.454c4.698,0.723,9.43,0.981,14.078,2.202
							c4.637,1.267,9.329,2.356,13.844,4.019c18.281,6.467,34.325,18.567,46.398,32.822c12.189,14.309,20.266,31.089,24.899,48.174
							c4.502,17.148,5.754,34.817,3.043,51.799c-0.812,5.078-5.586,8.54-10.665,7.727c-3.768-0.601-6.646-3.384-7.549-6.855
							l-0.06-0.239c-3.848-14.875-8.411-28.931-14.586-41.831c-6.051-12.905-13.673-24.556-22.736-34.065
							c-9.066-9.58-20.04-16.27-31.924-20.261c-11.937-3.911-25.037-5.007-38.574-3.889c-6.858,0.598-13.478,1.475-19.669,3.328
							c-6.244,1.743-12.281,4.036-17.808,7.275c-5.538,3.201-10.834,6.924-15.664,11.406c-4.834,4.485-9.132,9.683-13.214,15.239
							c-15.973,22.48-25.382,52.612-30.121,82.073l-0.115,0.713c-0.803,4.998-5.507,8.396-10.504,7.593
							C1915.569,1831.25,1912.502,1827.822,1912.097,1823.787z"/>
					</g>
				</g>
			</g>
			<g>
				<g>
					<g>
						<path style="fill:#FFB3B5;" d="M2075.719,1977.817c3.189-0.142,10.965-9.052-6.779-32.894
							c-22.079-29.667-48.406-57.183-56.35-51.671C1991.775,1907.694,2056.562,1978.671,2075.719,1977.817z"/>
					</g>
				</g>
				<g>
					<g>
						<path style="fill:#FFB3B5;" d="M1979.323,1987.082c3.189-0.142,10.965-9.052-6.779-32.894
							c-22.079-29.667-48.406-57.182-56.35-51.671C1895.379,1916.959,1960.166,1987.936,1979.323,1987.082z"/>
					</g>
				</g>
				<g>
					<g>
						<path style="fill:#FFB3B5;" d="M1882.927,1996.347c3.189-0.142,10.965-9.052-6.779-32.894
							c-22.079-29.667-48.406-57.183-56.35-51.671C1798.983,1926.224,1863.77,1997.201,1882.927,1996.347z"/>
					</g>
				</g>
			</g>
			<g>
				<g>
					<g>
						<path style="fill:#FFB3B5;" d="M2862.275,1902.218c3.189-0.142,10.965-9.052-6.779-32.894
							c-22.079-29.667-48.406-57.183-56.35-51.671C2778.332,1832.095,2843.118,1903.072,2862.275,1902.218z"/>
					</g>
				</g>
				<g>
					<g>
						<path style="fill:#FFB3B5;" d="M2765.879,1911.483c3.189-0.142,10.965-9.052-6.779-32.894
							c-22.079-29.667-48.406-57.183-56.35-51.671C2681.936,1841.36,2746.722,1912.337,2765.879,1911.483z"/>
					</g>
				</g>
				<g>
					<g>
						<path style="fill:#FFB3B5;" d="M2669.483,1920.748c3.189-0.142,10.965-9.052-6.779-32.894
							c-22.079-29.667-48.406-57.183-56.35-51.671C2585.539,1850.625,2650.326,1921.602,2669.483,1920.748z"/>
					</g>
				</g>
			</g>
			<g>
				<g>
					<g>
						<path style="fill:#FFFFFF;" d="M2507.388,1885.104c0,0,22.945,45.786-6.244,66.951c-37.665,27.313-79.772-1.571-99.763-24.179
							c0,0-36.791,70.934-96.667,49.042c-40.08-14.654-28.448-70.142-28.448-70.142l120.146-84.872L2507.388,1885.104z"/>
					</g>
				</g>
			</g>
			<g>
				<g>
					<g>
						<path style="fill:#000072;" d="M2513.518,1882.031c2.38,3.877,4.111,7.451,5.789,11.367c1.615,3.877,3.109,7.849,4.147,12.034
							c2.17,8.301,3.27,17.371,1.694,26.919c-1.421,9.502-6.492,19.407-14.152,26.15l-2.852,2.551
							c-0.956,0.759-1.904,1.301-2.861,1.96l-5.771,3.74c-4.22,1.975-8.319,4.26-12.933,5.444
							c-8.972,2.905-18.741,3.652-27.874,2.407c-9.189-1.108-17.82-4.026-25.791-7.698c-15.792-7.676-29.128-18.425-40.093-31.46
							l18.704-2.307c-4.5,8.784-9.41,15.869-15.233,23.083c-5.771,7.095-12.496,13.521-19.896,19.365
							c-3.966,2.654-7.657,5.627-12.078,7.761c-2.17,1.096-4.219,2.393-6.508,3.291l-6.958,2.544
							c-2.269,0.955-4.778,1.328-7.211,1.873c-2.46,0.437-4.866,1.167-7.368,1.309c-4.999,0.149-10.043,0.869-14.954-0.027
							l-7.389-0.92c-2.386-0.535-4.703-1.292-7.05-1.948c-2.346-0.757-4.648-1.223-7.009-2.253l-7.052-3.469
							c-9.21-5.349-16.588-13.899-20.729-23.137c-4.235-9.265-5.671-18.906-5.969-28.105c-0.172-4.619,0.206-9.177,0.748-13.662
							c0.57-4.548,1.348-8.767,2.686-13.474c1.036-3.645,4.833-5.762,8.479-4.724c3.154,0.896,5.164,3.86,4.976,7.004l-0.033,0.535
							c-0.89,15.044,0.806,31.682,7.559,43.101c3.309,5.75,7.771,9.98,13.201,12.852c1.476,0.574,2.921,1.172,4.351,1.804
							c1.493,0.583,3.354,0.889,5.002,1.37c1.697,0.413,3.38,0.959,5.076,1.304l5.101,0.43c13.629,1.35,26.687-4.336,38.468-12.781
							c5.798-4.487,11.13-9.78,16.195-15.464c4.99-5.579,9.683-12.322,13.307-18.184l8.195-13.252l10.511,10.945
							c9.673,10.071,21.245,18.718,33.326,24.624c12.218,5.459,25.037,8.008,36.647,4.568c2.99-0.544,5.718-2.08,8.606-3.169
							l4.065-2.446c0.658-0.408,1.426-0.793,2.002-1.211l1.536-1.26c4.181-3.271,6.978-7.644,8.562-13.313
							c3.096-11.348,0.778-26.66-3.428-39.924l-0.149-0.469c-1.147-3.618,0.857-7.483,4.475-8.63
							C2508.656,1878.105,2511.904,1879.407,2513.518,1882.031z"/>
					</g>
				</g>
			</g>
			<g style="opacity:0.3;">
				<g>
					<path style="fill:#000072;" d="M2304.731,1976.917c59.841,21.897,96.656-49.042,96.656-49.042
						c19.972,22.625,62.108,51.501,99.77,24.174c19.076-13.851,10.703-51.748,6.231-66.946c-1.662,8.307-6.616,28.877-12.427,35.438
						c-24.588,27.761-78.185-28.032-98.154-50.62c0,0-39.489,107.644-94.63,75.706c-15.34-8.885-17.234-29.634-20.887-42.076
						C2279.867,1919.789,2274.563,1965.896,2304.731,1976.917z"/>
				</g>
			</g>
			<g>
				<g>
					<path style="fill:#000072;" d="M2402.784,1856.021c2.533,6.299,4.501,12.28,6.299,18.589c1.766,6.262,3.225,12.644,4.365,19.16
						c2.224,13.027,3.076,26.694,0.957,40.994l-0.017,0.11c-1.074,7.253-7.826,12.261-15.079,11.187
						c-7.253-1.077-12.262-7.827-11.188-15.081c0.116-0.781,0.323-1.606,0.564-2.329c3.395-9.98,4.922-21.448,4.976-33.152
						c0.017-5.857-0.262-11.794-0.852-17.734c-0.586-5.886-1.488-12.014-2.646-17.583l-0.067-0.32
						c-0.748-3.599,1.561-7.124,5.16-7.871C2398.461,1851.321,2401.606,1853.086,2402.784,1856.021z"/>
				</g>
			</g>
			<g>
				<g>
					<path style="fill:#000072;" d="M2297.454,1832.989c4.916,16.742,70.054,41.249,104.301,36.411
						c36.758-5.193,72.345-40.175,74.829-57.244c2.908-19.983-30.871-39.057-102.926-26.948
						C2314.723,1795.111,2292.065,1814.638,2297.454,1832.989z"/>
				</g>
			</g>
			<g style="opacity:0.7;">
				<g>
					<path style="fill:#FFFFFF;" d="M2377.248,1800.612c-0.753,5.172,13.027,10.248,23.606,9.384
						c6.001-0.49,27.534-2.501,28.361-8.167c0.826-5.666-5.639-10.304-25.741-10.429
						C2385.196,1791.287,2378,1795.439,2377.248,1800.612z"/>
				</g>
			</g>
			<g>
				<g>
					<path style="fill:#B2B2B2;" d="M2492.039,2348.77c0,0,292.122-701.568,458.347-947.79
						c15.495-22.952,49.402-12.044,49.391,15.886c-0.05,121.836-32.882,404.703-257.459,912.065
						c-16.449,37.162-54.172,58.323-92.419,52.768c-19.039-2.765-36.06-1.783-39.764,9.227"/>
				</g>
			</g>
			<g>
				<g>
					<path style="fill:#FFFFFF;" d="M2652.41,2381.996c37.371,4.304,73.812-16.725,89.898-53.085
						c224.584-507.342,257.406-790.206,257.469-912.05c0-23.641-24.326-35.077-41.176-24.09
						c-9.138,154.003-63.497,460.787-296.109,971.805C2659.658,2370.819,2656.263,2376.635,2652.41,2381.996z"/>
				</g>
			</g>
			<g>
				<g>
					<path style="fill:#4A2922;" d="M2661.793,2400.839c-4.819,0.005-9.663-0.342-14.521-1.045
						c-17.136-2.495-22.029-0.049-22.073-0.02c0.496-0.264,1.702-1.343,2.266-3.022l-34.658-11.66
						c6.423-19.082,26.509-26.304,59.719-21.489c30.586,4.448,59.966-12.466,73.074-42.075
						c222.534-502.744,255.845-782.6,255.894-904.67c0.002-6.963-4.414-9.065-6.311-9.646c-2.148-0.667-6.26-1.011-9.641,3.999
						c-163.301,241.89-453.708,937.588-456.621,944.585l-33.76-14.053c11.958-28.716,294.727-706.072,460.073-950.991
						c11.553-17.122,31.44-24.382,50.652-18.508c19.556,5.989,32.185,23.506,32.175,44.629
						c-0.049,124.956-33.767,410.566-259.023,919.46C2741.571,2375.79,2702.908,2400.839,2661.793,2400.839z"/>
				</g>
			</g>
			<g>
				<g>
					<path style="fill:#9DA9B9;" d="M2999.81,1416.876c-0.068,98.811-21.708,303.715-149.782,648.397
						c-29.806,80.164-65.33,167.952-107.726,263.632c-16.401,37.156-54.17,58.32-92.414,52.808
						c-19.055-2.79-36.068-1.769-39.743,9.187l-118.137-42.124c0,0,19.122-45.867,50.358-118.343
						c90.849-210.756,284.32-646.219,408.038-829.481C2965.852,1378.019,2999.81,1388.907,2999.81,1416.876z"/>
				</g>
			</g>
			<g style="opacity:0.4;">
				<g>
					<g>
						<path style="fill:#FFFFFF;" d="M2990.054,1413.047c-166.214,246.211-458.348,947.77-458.348,947.77l79.214,28.289
							c-0.291,0.578-0.549,1.202-0.77,1.833l-118.097-42.15c0,0,292.102-701.606,458.316-947.817
							c13.127-19.454,39.49-14.571,47.21,4.335C2994.821,1407.236,2992.234,1409.817,2990.054,1413.047z"/>
					</g>
				</g>
			</g>
			<g>
				<g>
					<path style="fill:#FFFFFF;" d="M2652.41,2381.996c37.371,4.304,73.812-16.725,89.898-53.085
						c224.584-507.342,257.406-790.206,257.469-912.05c0-23.641-24.326-35.077-41.176-24.09
						c-9.138,154.003-63.497,460.787-296.109,971.805C2659.658,2370.819,2656.263,2376.635,2652.41,2381.996z"/>
				</g>
			</g>
			<g style="opacity:0.3;">
				<g>
					<path style="fill:#000072;" d="M2850.028,2065.272c-29.806,80.164-65.33,167.952-107.726,263.632
						c-16.401,37.156-54.17,58.32-92.414,52.808c-19.055-2.79-36.068-1.769-39.743,9.187l-118.137-42.124
						c0,0,19.122-45.867,50.358-118.343C2595.379,2269.087,2708.208,2302.569,2850.028,2065.272z"/>
				</g>
			</g>
			<g>
				<g>
					<path style="fill:#000072;" d="M2610.137,2409.213c-1.934,0-3.899-0.313-5.835-0.962c-9.57-3.223-14.717-13.589-11.497-23.159
						c6.423-19.082,26.509-26.304,59.719-21.489c30.586,4.448,59.966-12.466,73.074-42.075
						c222.534-502.744,255.845-782.6,255.894-904.67c0.002-6.963-4.414-9.065-6.311-9.646c-2.148-0.667-6.26-1.011-9.641,3.999
						c-163.301,241.89-453.708,937.588-456.621,944.585c-3.882,9.326-14.587,13.74-23.909,9.854
						c-9.321-3.882-13.733-14.585-9.851-23.906c11.958-28.716,294.727-706.072,460.073-950.991
						c11.553-17.122,31.44-24.382,50.652-18.508c19.556,5.989,32.185,23.506,32.175,44.629
						c-0.049,124.956-33.767,410.566-259.023,919.46c-19.514,44.082-65.452,70.171-111.765,63.462
						c-12.698-1.851-18.669-0.986-20.93-0.4C2623.165,2405.483,2616.849,2409.213,2610.137,2409.213z"/>
				</g>
			</g>
			<g>
				<g>
					<path style="fill:#F0835C;" d="M2616.053,2421.34c-8.965,21.543-23.868,57.371-41.269,99.375
						c-29.452,71.171-66.08,160.134-93.249,227.426c-13.167,32.651-18.645,58.256-20.698,80.249
						c-4.563,48.285,7.13,78.996-11.282,127.752c-25.942,68.739-105.197,81.261-158.251,30.041
						c-65.979-63.803-10.874-190.682,10.933-238.223c1.409-3.104,3.464-7.521,6.024-13.105
						c22.214-48.35,83.964-182.652,129.323-281.2c18.078-39.355,33.583-73.045,42.884-93.242
						c5.229-11.359,17.94-16.511,28.846-11.709l95.277,41.963C2615.868,2395.612,2621.021,2409.397,2616.053,2421.34z"/>
				</g>
			</g>
			<g>
				<g>
					<path style="fill:#FF833E;" d="M2616.075,2421.338c-9.005,21.53-23.906,57.366-41.276,99.374
						c-29.483,71.171-66.097,160.123-93.249,227.408c-13.164,32.683-18.649,58.281-20.706,80.267
						c-4.571,48.27,7.131,78.987-11.291,127.76c-25.917,68.748-105.179,81.273-158.249,30.032
						c-48.453-46.899-31.586-127.76-10.604-186.269c7.588-21.118,15.724-39.356,21.529-51.973c1.417-3.063,3.474-7.496,6.034-13.073
						c18.878-41.094,66.326-144.261,107.968-234.768c7.359-16.044,14.536-31.631,21.347-46.441
						c18.101-39.356,33.597-73.045,42.876-93.249c5.257-11.336,17.964-16.501,28.843-11.702l95.306,41.962
						C2615.846,2395.604,2621.012,2409.408,2616.075,2421.338z"/>
				</g>
			</g>
			<g>
				<g>
					<path style="fill:#DD5A26;" d="M2616.075,2421.338c-9.005,21.53-23.906,57.366-41.276,99.374
						c-29.483,71.171-66.097,160.123-93.249,227.408c-13.164,32.683-18.649,58.281-20.706,80.267
						c-4.571,48.27,7.131,78.987-11.291,127.76c-25.917,68.748-105.179,81.273-158.249,30.032
						c-48.453-46.899-31.586-127.76-10.604-186.269c35.425,7.359,81.638,12.844,118.298,3.154
						c61.023-16.136,67.331-115.052,63.766-151.255c-4.251-43.425-29.986-96.814-46.533-151.712
						c7.359-16.044,14.536-31.631,21.347-46.441c18.101-39.356,33.597-73.045,42.876-93.249
						c5.257-11.336,17.964-16.501,28.843-11.702l95.306,41.962C2615.846,2395.604,2621.012,2409.408,2616.075,2421.338z"/>
				</g>
			</g>
			<g>
				<g>
					<path style="fill:#000072;" d="M2364.744,3035.824c-30.723,0.005-61.66-12.852-86.128-36.494
						c-51.379-49.653-49.019-136.792,7.014-258.999c18.679-40.728,142.92-310.82,178.218-387.554
						c9.458-20.542,32.671-29.673,52.849-20.791l95.244,41.934c20.347,8.965,29.763,33.394,20.994,54.458
						c-26.233,63.037-91.851,221.06-134.458,326.611c-21.99,54.468-21.067,87.324-20.173,119.102
						c0.74,26.357,1.504,53.613-11.66,88.511c-13.896,36.831-42.427,62.568-78.279,70.62
						C2380.584,3034.97,2372.669,3035.824,2364.744,3035.824z M2500.811,2365.209c-1.445,0-2.925,1.074-3.743,2.856
						c-35.291,76.719-159.521,346.782-178.198,387.51c-48.87,106.587-53.865,179.751-14.844,217.456
						c21.904,21.167,50.447,30.337,76.326,24.512c23.972-5.381,42.466-22.378,52.078-47.852
						c10.623-28.159,10.02-49.668,9.319-74.575c-0.95-33.872-2.029-72.271,22.817-133.818
						c42.676-105.713,108.352-263.877,134.609-326.973c1.257-3.022-0.029-6.084-1.973-6.938l-95.244-41.934
						C2501.588,2365.287,2501.199,2365.209,2500.811,2365.209z"/>
				</g>
			</g>
			<g>
				<g>
					
						<ellipse transform="matrix(0.1595 -0.9872 0.9872 0.1595 -283.132 4547.5405)" style="fill:#6B184E;" cx="2528.974" cy="2440.039" rx="21.186" ry="20.074"/>
				</g>
			</g>
			<g>
				<g>
					<path style="fill:#FFFFFF;" d="M2594.267,2650.843c-39.075,7.426-115.499-28.374-126.819-86.307
						c-15.414-78.884,7.603-165.927,64.259-203.718c34.554-23.048,134.087-1.366,144.284,74.059
						C2685.058,2501.947,2652.41,2639.792,2594.267,2650.843z"/>
				</g>
			</g>
			<g style="opacity:0.3;">
				<g>
					<path style="fill:#000072;" d="M2675.99,2434.876c-1.289-9.535-4.014-18.204-7.847-26.039
						c0.08,71.421-28.815,181.69-76.252,191.526c-35.815,7.427-105.862-28.374-116.237-86.307
						c-3.803-21.234-4.969-43.039-3.753-64.335c-10.277,35.76-11.989,76.246-4.453,114.814
						c11.32,57.933,87.743,93.734,126.819,86.307C2652.41,2639.792,2685.057,2501.947,2675.99,2434.876z"/>
				</g>
			</g>
			<g>
				<g>
					<path style="fill:#000072;" d="M2583.052,2670.102c-49.741,0-121.396-39.863-133.55-102.061
						c-17.747-90.83,11.885-182.3,72.061-222.432c24.307-16.221,67.385-15.781,104.749,1.094
						c38.044,17.173,62.754,48.418,67.798,85.723c9.836,72.773-24.119,222.637-96.431,236.382
						C2593.099,2669.677,2588.189,2670.102,2583.052,2670.102z M2567.535,2370.336c-11.074,0-20.286,2.095-25.681,5.693
						c-47.476,31.665-71.221,109.468-56.462,185c9.299,47.593,76.418,77.344,105.461,71.851l0,0
						c40.212-7.642,76.174-127.827,67.017-195.552c-4.541-33.599-31.147-50.317-46.604-57.295
						C2596.236,2373.246,2580.592,2370.336,2567.535,2370.336z"/>
				</g>
			</g>
			<g>
				<g>
					<path style="fill:#97979E;" d="M2528.952,2702.822c-30.306,129.268-100.837,206.198-325.502,164.831
						c-13.667-2.514-27.883-5.485-42.693-8.868c-86.712-19.884-161.54-66.006-180.829-78.576h-0.046c-3.154-2.057-4.8-3.2-4.8-3.2
						l44.111-314.349c0,0,87.763,73.274,237.236,107.282c21.987,5.028,45.299,9.188,69.891,12.113
						C2477.436,2600.202,2550.847,2609.482,2528.952,2702.822z"/>
				</g>
			</g>
			<g>
				<g>
					<path style="fill:#FFFFFF;" d="M2528.952,2702.822c-30.306,129.268-100.837,206.198-325.502,164.831
						c-7.039-28.615-10.787-58.829-10.787-90.049c0-78.713,23.861-151.026,63.765-207.661c21.987,5.028,45.299,9.188,69.891,12.113
						C2477.436,2600.202,2550.847,2609.482,2528.952,2702.822z"/>
				</g>
			</g>
			<g style="opacity:0.3;">
				<g>
					<path style="fill:#000072;" d="M2528.952,2702.822c-30.306,129.268-100.837,206.198-325.502,164.831
						c-13.667-2.514-27.883-5.485-42.693-8.868c-86.712-19.884-161.54-66.006-180.829-78.576
						C2110.749,2785.603,2378.428,2926.253,2528.952,2702.822z"/>
				</g>
			</g>
			<g>
				<g>
					<path style="fill:#000072;" d="M2023.8,2457.109c22.606,12.478,45.753,24.856,68.898,36.46
						c11.534,5.959,23.298,11.445,34.991,17.075c11.912,5.173,23.739,10.53,35.927,15.034
						c48.348,19.058,99.117,31.418,150.414,39.006c12.693,2.026,25.994,3.501,39.205,5.137c13.221,1.641,26.464,3.315,39.75,5.168
						c26.569,3.884,53.297,7.993,80.347,15.996c13.475,4.067,27.209,9.36,40.304,17.939c6.528,4.27,12.772,9.768,18.076,16.279
						c5.276,6.519,9.557,14.194,12.034,22.192c2.513,7.988,3.558,16.057,3.813,23.86c-0.027,7.708-0.508,15.305-1.805,22.478
						c-1.15,7.285-2.876,14.229-4.543,20.735c-1.621,6.638-3.578,13.247-5.542,19.841c-8.058,26.318-19.099,52.417-35.288,76.072
						c-16.149,23.625-38.386,43.806-63.954,57.29c-25.651,13.406-53.575,20.513-81.208,23.916
						c-27.705,3.201-55.322,2.976-82.506,0.811c-27.189-2.222-54.053-6.072-80.487-11.514c-6.626-1.294-13.23-2.659-19.781-4.197
						c-6.592-1.563-13.081-2.793-19.755-4.629c-13.322-3.34-26.464-7.209-39.37-11.646c-25.839-8.833-50.715-19.956-74.576-32.756
						c-23.804-13.018-46.58-27.349-67.771-44.727c-3.088-2.534-3.539-7.09-1.007-10.178c2.211-2.695,5.964-3.381,8.937-1.829
						l0.277,0.146c46.305,24.167,94.222,45.898,143.289,61.797c12.269,4.001,24.681,7.437,37.164,10.359
						c6.156,1.604,12.745,2.751,19.095,4.153c6.399,1.396,12.819,2.615,19.246,3.765c25.696,4.641,51.422,8.784,77.18,10.823
						c25.73,2.065,51.459,2.332,76.567-0.325c25.022-2.888,49.375-9.055,70.999-20.142c21.515-11.216,39.846-27.515,53.882-47.61
						c14.006-20.161,23.704-43.665,31.069-68.071c6.969-24.607,14.265-50.298,7.783-69.233c-3.038-9.29-9.293-16.65-18.435-22.695
						c-9.178-5.945-20.45-10.476-32.383-13.948c-23.961-6.97-49.923-10.903-75.881-14.541c-13.019-1.792-26.124-3.43-39.26-5.037
						c-13.145-1.606-26.245-3.03-39.789-5.146c-53.779-7.512-106.693-21.521-156.964-42.019
						c-25.166-10.12-49.95-21.384-73.412-35.12c-23.431-13.853-45.632-29.504-64.771-49.9c-2.743-2.922-2.596-7.515,0.326-10.256
						c2.351-2.207,5.782-2.544,8.462-1.069L2023.8,2457.109z"/>
				</g>
			</g>
			<g>
				<g>
					<path style="fill:#000072;" d="M2585.093,2991.648c1.002-40.186,1.324-80.527,1.069-120.728
						c-0.314-40.203-1.252-80.388-3.68-120.156l-0.004-0.061c-0.615-10.088,7.062-18.765,17.15-19.38
						c10.087-0.615,18.763,7.063,19.379,17.148c0.028,0.449,0.037,0.94,0.032,1.382c-0.596,40.916-2.722,81.453-5.463,121.909
						c-2.804,40.459-6.172,80.745-10.238,121.099c-0.507,5.027-4.993,8.691-10.018,8.184c-4.784-0.481-8.335-4.568-8.229-9.294
						L2585.093,2991.648z"/>
				</g>
			</g>
			<g>
				<g>
					
						<ellipse transform="matrix(0.2298 -0.9732 0.9732 0.2298 -1018.0875 4545.5132)" style="fill:#000072;" cx="2362.707" cy="2915.961" rx="29.022" ry="29.022"/>
				</g>
			</g>
		</g>
	</g>
</g>
</svg>
